<svg width="32" height="32" viewBox="0 0 32 32" fill="none" xmlns="http://www.w3.org/2000/svg">
<path fill-rule="evenodd" clip-rule="evenodd" d="M5.95951 27.3383H26.0395C28.0928 27.3383 29.3728 25.1116 28.3462 23.3383L18.3062 5.99162C17.2795 4.21829 14.7195 4.21829 13.6928 5.99162L3.65284 23.3383C2.62618 25.1116 3.90618 27.3383 5.95951 27.3383ZM15.9995 18.005C15.2662 18.005 14.6662 17.405 14.6662 16.6716V14.005C14.6662 13.2716 15.2662 12.6716 15.9995 12.6716C16.7328 12.6716 17.3328 13.2716 17.3328 14.005V16.6716C17.3328 17.405 16.7328 18.005 15.9995 18.005ZM14.6662 23.3383H17.3328V20.6716H14.6662V23.3383Z" fill="#F7B13C"/>
</svg>
